HIERARCHY
ROOT Hips
{
	OFFSET -0.001795 -0.223333 0.028219
	CHANNELS 6 Xposition Yposition Zposition Zrotation Yrotation Xrotation 
	JOINT LeftUpLeg
	{
		OFFSET 0.069520 -0.091406 -0.006815
		CHANNELS 3 Zrotation Yrotation Xrotation
		JOINT LeftLeg
		{
			OFFSET 0.034277 -0.375199 -0.004496
			CHANNELS 3 Zrotation Yrotation Xrotation
			JOINT LeftFoot
			{
				OFFSET -0.013596 -0.397961 -0.043693
				CHANNELS 3 Zrotation Yrotation Xrotation
				JOINT LeftToe
				{
					OFFSET 0.026358 -0.055791 0.119288
					CHANNELS 3 Zrotation Yrotation Xrotation
					End Site
					{
						OFFSET 0.000000 0.000000 0.000000
					}
				}
			}
		}
	}
	JOINT RightUpLeg
	{
		OFFSET -0.067670 -0.090522 -0.004320
		CHANNELS 3 Zrotation Yrotation Xrotation
		JOINT RightLeg
		{
			OFFSET -0.038290 -0.382569 -0.008850
			CHANNELS 3 Zrotation Yrotation Xrotation
			JOINT RightFoot
			{
				OFFSET 0.015774 -0.398415 -0.042312
				CHANNELS 3 Zrotation Yrotation Xrotation
				JOINT RightToe
				{
					OFFSET -0.025372 -0.048144 0.123348
					CHANNELS 3 Zrotation Yrotation Xrotation
					End Site
					{
						OFFSET 0.000000 0.000000 0.000000
					}
				}
			}
		}
	}
	JOINT Spine
	{
		OFFSET -0.002533 0.108963 -0.026696
		CHANNELS 3 Zrotation Yrotation Xrotation
		JOINT Spine1
		{
			OFFSET 0.005487 0.135180 0.001092
			CHANNELS 3 Zrotation Yrotation Xrotation
			JOINT Spine2
			{
				OFFSET 0.001457 0.052922 0.025425
				CHANNELS 3 Zrotation Yrotation Xrotation
				JOINT Neck
				{
					OFFSET -0.002778 0.213870 -0.042857
					CHANNELS 3 Zrotation Yrotation Xrotation
					JOINT Head
					{
						OFFSET 0.005152 0.064970 0.051349
						CHANNELS 3 Zrotation Yrotation Xrotation
						End Site
						{
							OFFSET 0.000000 0.000000 0.000000
						}
					}
				}
				JOINT LeftShoulder
				{
					OFFSET 0.078845 0.121749 -0.034090
					CHANNELS 3 Zrotation Yrotation Xrotation
					JOINT LeftArm
					{
						OFFSET 0.090977 0.030469 -0.008868
						CHANNELS 3 Zrotation Yrotation Xrotation
						JOINT LeftForeArm
						{
							OFFSET 0.259612 -0.012772 -0.027456
							CHANNELS 3 Zrotation Yrotation Xrotation
							JOINT LeftHand
							{
								OFFSET 0.249234 0.008986 -0.001171
								CHANNELS 3 Zrotation Yrotation Xrotation
								End Site
								{
									OFFSET 0.000000 0.000000 0.000000
								}
							}
						}
					}
				}
				JOINT RightShoulder
				{
					OFFSET -0.081759 0.118833 -0.038615
					CHANNELS 3 Zrotation Yrotation Xrotation
					JOINT RightArm
					{
						OFFSET -0.096012 0.032551 -0.009143
						CHANNELS 3 Zrotation Yrotation Xrotation
						JOINT RightForeArm
						{
							OFFSET -0.253742 -0.013329 -0.021401
							CHANNELS 3 Zrotation Yrotation Xrotation
							JOINT RightHand
							{
								OFFSET -0.255298 0.007772 -0.005559
								CHANNELS 3 Zrotation Yrotation Xrotation
								End Site
								{
									OFFSET 0.000000 0.000000 0.000000
								}
							}
						}
					}
				}
			}
		}
	}
}
MOTION
Frames: 12
Frame Time: 0.050000
0.080582 0.938264 -0.088368 -7.133036 40.265583 4.505224 7.200336 -0.975961 -6.874272 -1.428626 -0.126229 -7.212883 -4.612673 -4.203190 5.244064 0.000000 0.000000 0.000000 2.783082 0.812247 -6.453768 -0.972447 -0.344954 -8.727968 2.732551 5.340920 14.327278 0.000000 0.000000 0.000000 1.000145 -0.015281 -0.714469 -7.226367 2.717281 -0.225986 1.452679 6.615423 5.237997 5.298976 1.621532 -20.499571 0.000000 0.000000 0.000000 -22.567732 -15.926634 -2.653219 -44.236988 -14.863337 2.699577 -31.593240 -54.664670 12.859293 0.000000 0.000000 0.000000 5.807598 18.534380 10.751642 28.776418 47.577285 9.313284 -43.703093 57.928577 -16.905957 0.000000 0.000000 0.000000 
0.081263 0.938441 -0.088369 -7.050067 42.364165 4.997340 7.128299 -1.032761 -7.553521 -1.542027 -0.189622 -7.602325 -5.721956 -5.591027 5.857239 0.000000 0.000000 0.000000 2.332223 0.818307 -7.065121 -0.492090 -0.348342 -8.210875 1.709173 3.777686 14.121531 0.000000 0.000000 0.000000 0.864732 0.001437 -1.270485 -7.099004 2.626537 -0.509627 0.992473 6.338440 5.601324 5.504513 1.730529 -20.996896 0.000000 0.000000 0.000000 -23.044668 -16.667305 -2.824009 -45.026585 -13.858826 2.524115 -29.235372 -53.188540 11.140833 0.000000 0.000000 0.000000 7.102956 15.065144 9.694714 34.330969 42.054927 9.170852 -52.212570 67.563570 -24.894682 0.000000 0.000000 0.000000 
0.082495 0.937808 -0.088272 -6.843672 44.052325 5.491441 6.612603 -1.031616 -7.945356 -1.098696 -0.223815 -8.108623 -6.586588 -6.827561 6.163030 0.000000 0.000000 0.000000 1.977585 0.796818 -7.340554 -0.347875 -0.355293 -8.107213 0.882799 2.504012 13.807720 0.000000 0.000000 0.000000 0.541046 0.017804 -1.891848 -6.795459 2.500399 -0.890441 0.461470 5.188545 6.437787 4.789570 2.123884 -20.980574 0.000000 0.000000 0.000000 -23.592562 -15.988699 -3.363608 -44.656078 -13.189862 2.264808 -26.357984 -51.374790 9.570825 0.000000 0.000000 0.000000 9.725146 11.963158 9.124704 37.383742 33.887367 6.416349 -71.397031 81.444002 -48.019074 0.000000 0.000000 0.000000 
0.083847 0.937043 -0.088253 -7.003507 45.777640 5.618723 6.703455 -1.100265 -8.619763 -1.227571 -0.254195 -7.888623 -7.257974 -8.095433 6.147860 0.000000 0.000000 0.000000 1.791937 0.799202 -7.880152 0.002889 -0.336368 -7.282366 0.028457 1.130093 13.294779 0.000000 0.000000 0.000000 0.146008 0.026373 -2.468055 -6.329685 2.307575 -1.076273 0.415995 3.671352 7.123668 4.773265 2.099704 -20.960444 0.000000 0.000000 0.000000 -23.630467 -14.776390 -3.842068 -44.679225 -12.753722 1.951540 -25.193779 -49.491191 8.854744 0.000000 0.000000 0.000000 11.338576 7.916642 7.443993 39.955404 25.455228 3.543211 151.033434 84.169845 166.672883 0.000000 0.000000 0.000000 
0.085171 0.936748 -0.088602 -6.490745 46.777309 5.839983 5.975692 -1.035573 -8.470701 -0.882625 -0.264469 -8.137618 -7.865613 -8.949243 6.377313 0.000000 0.000000 0.000000 1.306743 0.742728 -8.012778 0.002894 -0.287509 -6.533052 -0.482653 0.258326 12.754245 0.000000 0.000000 0.000000 -0.261708 0.025509 -2.381327 -6.090097 2.230679 -1.378484 0.185541 2.588947 7.564952 4.582175 2.115204 -20.664237 0.000000 0.000000 0.000000 -23.371751 -13.106159 -4.481063 -44.342465 -11.474699 1.331737 -24.935946 -49.740715 8.872494 0.000000 0.000000 0.000000 13.895507 3.689708 5.829634 39.376357 17.769661 0.411659 127.655561 72.730596 132.498358 0.000000 0.000000 0.000000 
0.086358 0.936530 -0.089355 -6.159623 47.965314 6.132366 5.591229 -1.034363 -8.758265 -0.884691 -0.286455 -8.088958 -8.494534 -9.844986 6.621037 0.000000 0.000000 0.000000 0.976339 0.703454 -8.433728 -0.036828 -0.231790 -5.656819 -1.073540 -0.760781 12.329877 0.000000 0.000000 0.000000 -0.417381 0.019950 -2.690860 -5.560732 1.996310 -1.243467 0.042075 1.203819 7.586120 4.298069 2.098093 -20.082867 0.000000 0.000000 0.000000 -23.249725 -11.535066 -5.045970 -44.510711 -11.196854 1.102916 -24.872478 -48.947970 8.775866 0.000000 0.000000 0.000000 13.768852 1.405053 4.354516 40.436774 10.386541 -1.794867 123.001297 64.035307 118.575058 0.000000 0.000000 0.000000 
0.087503 0.936747 -0.090250 -5.784625 48.190535 6.374107 5.196943 -1.003894 -8.747543 -0.883604 -0.291546 -8.085610 -8.714992 -10.033024 6.806716 0.000000 0.000000 0.000000 0.595583 0.655744 -8.600727 -0.016961 -0.212868 -5.219356 -1.188487 -0.970498 12.202200 0.000000 0.000000 0.000000 -0.296840 0.017496 -2.709764 -5.703805 2.016630 -1.109278 0.240928 0.670214 7.544637 3.983388 2.135844 -19.549492 0.000000 0.000000 0.000000 -22.947878 -10.495871 -5.322324 -44.593968 -10.764014 0.843531 -26.604202 -49.745105 9.700867 0.000000 0.000000 0.000000 14.184794 -0.672987 3.166378 40.154527 5.564078 -3.240053 120.317611 57.636350 107.871411 0.000000 0.000000 0.000000 
0.088342 0.936661 -0.091051 -5.619406 48.296280 6.417358 4.900097 -0.952602 -8.373776 -0.739648 -0.318439 -8.625968 -8.901016 -10.098968 7.025056 0.000000 0.000000 0.000000 0.455392 0.624156 -8.266799 -0.114132 -0.219374 -5.633952 -1.230376 -1.026191 12.304929 0.000000 0.000000 0.000000 -0.038931 0.013349 -3.128957 -5.553536 1.881236 -0.499884 0.440189 0.693320 7.255704 3.597346 2.274989 -19.173706 0.000000 0.000000 0.000000 -22.795090 -9.895588 -5.559074 -44.744477 -10.652749 0.785900 -28.301552 -50.693254 10.612549 0.000000 0.000000 0.000000 13.598201 -0.796724 2.916570 40.230947 4.049458 -3.578260 118.580952 56.205914 103.902562 0.000000 0.000000 0.000000 
0.088386 0.936593 -0.091697 -5.889821 48.085862 6.495120 5.076547 -0.960154 -8.261474 -0.717633 -0.366477 -9.360803 -8.878134 -9.771375 7.262825 0.000000 0.000000 0.000000 0.680648 0.671841 -8.652483 -0.237615 -0.197473 -5.574649 -1.152809 -0.876574 12.402140 0.000000 0.000000 0.000000 0.354099 0.012360 -3.572820 -5.618869 1.876062 -0.231798 0.873001 1.018079 7.075127 3.797409 2.174325 -19.200887 0.000000 0.000000 0.000000 -22.681679 -10.042669 -5.454575 -45.197168 -10.564403 0.739105 -29.637665 -52.226302 11.537148 0.000000 0.000000 0.000000 12.960194 0.331782 3.381209 41.315935 6.550279 -2.727078 118.400096 58.388949 106.312308 0.000000 0.000000 0.000000 
0.087290 0.936156 -0.092325 -6.072560 46.968028 6.284681 5.330892 -0.950912 -7.951117 -0.830304 -0.363210 -9.551294 -8.256720 -8.961902 6.967166 0.000000 0.000000 0.000000 0.811596 0.703397 -8.667046 -0.185765 -0.212377 -5.722531 -0.635419 -0.023104 12.358453 0.000000 0.000000 0.000000 0.812237 0.016279 -3.608944 -5.867938 1.983248 -0.069374 1.115235 2.181716 7.253741 4.863684 1.646117 -19.280319 0.000000 0.000000 0.000000 -22.080754 -10.781937 -5.010643 -45.979466 -11.160685 0.897712 -28.318749 -54.384614 11.198137 0.000000 0.000000 0.000000 13.214345 3.407552 5.278646 41.674166 12.833177 -0.799834 118.058119 65.000308 112.972757 0.000000 0.000000 0.000000 
0.085036 0.936098 -0.093095 -6.400032 46.312804 5.873791 5.813613 -0.991111 -8.060005 -1.074529 -0.330267 -9.053766 -7.788738 -8.504702 6.622071 0.000000 0.000000 0.000000 1.018059 0.737626 -8.735453 0.019889 -0.235949 -5.615190 -0.319832 0.494521 12.407301 0.000000 0.000000 0.000000 1.011091 0.018049 -3.232294 -6.384514 2.132312 0.417899 1.776086 3.535035 6.847294 5.980807 1.128690 -19.508319 0.000000 0.000000 0.000000 -21.192208 -12.417459 -4.063754 -46.769920 -12.718730 1.412145 -26.763811 -56.922975 10.694305 0.000000 0.000000 0.000000 13.215787 7.712209 7.843532 40.493163 20.619921 1.692496 118.601453 74.575488 122.381073 0.000000 0.000000 0.000000 
0.082416 0.936281 -0.093957 -6.578983 45.211525 5.437354 5.984220 -0.978147 -7.844461 -0.926081 -0.272748 -8.745042 -7.212196 -7.772022 6.327480 0.000000 0.000000 0.000000 1.182757 0.761133 -8.557433 0.162230 -0.264345 -5.780172 0.212594 1.371513 12.595420 0.000000 0.000000 0.000000 1.473598 0.010586 -2.607910 -7.072019 2.417394 0.476962 2.218125 5.401558 7.010884 6.880544 0.681429 -19.203365 0.000000 0.000000 0.000000 -20.441843 -13.877834 -3.442369 -47.222311 -14.161620 1.931995 -25.732300 -59.342682 10.246595 0.000000 0.000000 0.000000 12.967854 12.227271 10.550771 38.033775 29.807075 4.536112 116.679466 86.407084 129.638420 0.000000 0.000000 0.000000 
